# xmcd
#
# Track frame offsets:
#	150
#	13830
#	26987
#	47962
#	58862
#	75040
#	97230
#	113430
#	131411
#	154554
#	173254
#	195706
#	213806
#
# Disc length: 2999 seconds
#
# Revision: 1
# Processed by: cddbd v1.5.2PL0 Copyright (c) Steve Scherf et al.
# Submitted via: audiograbber 1.83.01
#
DISCID=9e0bb50d
DTITLE=Chrome - Blood on the Moon
DYEAR=1981
DGENRE=Rock
TTITLE0=The Need
TTITLE1=Inner Vacume
TTITLE2=Perfumed Metal
TTITLE3=Planet Strike
TTITLE4=The Strangers
TTITLE5=Insect Human
TTITLE6=Out of Reach
TTITLE7=Brain on Scan
TTITLE8=Blood on the Moon
TTITLE9=Out of Reach (live in Bologna 1981)
TTITLE10=Blood on the Moon (live in Bologna 1981)
TTITLE11=Inner Vacume (live in Bologna 1981)
TTITLE12=Planet Strike (live in Bologna 1981)
EXTD=
EXTT0=
EXTT1=
EXTT2=
EXTT3=
EXTT4=
EXTT5=
EXTT6=
EXTT7=
EXTT8=
EXTT9=
EXTT10=
EXTT11=
EXTT12=
PLAYORDER=
